<svg width="24" height="25" viewBox="0 0 24 25" fill="none" xmlns="http://www.w3.org/2000/svg">
<g clip-path="url(#clip0_21_813)">
<path d="M12 0.181885C5.37264 0.181885 0 5.55452 0 12.1819C0 17.8094 3.87456 22.5316 9.10128 23.8286V15.8491H6.62688V12.1819H9.10128V10.6017C9.10128 6.51741 10.9498 4.62428 14.9597 4.62428C15.72 4.62428 17.0318 4.77356 17.5685 4.92236V8.24636C17.2853 8.2166 16.7933 8.20172 16.1822 8.20172C14.2147 8.20172 13.4544 8.94716 13.4544 10.8849V12.1819H17.3741L16.7006 15.8491H13.4544V24.094C19.3963 23.3764 24.0005 18.3172 24.0005 12.1819C24 5.55452 18.6274 0.181885 12 0.181885Z" fill="white"/>
</g>
<defs>
<clipPath id="clip0_21_813">
<rect width="24" height="24" fill="white" transform="translate(0 0.181885)"/>
</clipPath>
</defs>
</svg>
