<svg width="25" height="25" viewBox="0 0 25 25" fill="none" xmlns="http://www.w3.org/2000/svg">
<g clip-path="url(#clip0_21_811)">
<path d="M12.3999 2.34282C15.6062 2.34282 15.9858 2.35688 17.2468 2.41313C18.4187 2.4647 19.0515 2.66157 19.4733 2.82563C20.0312 3.04126 20.4343 3.30376 20.8515 3.72095C21.2733 4.14282 21.5312 4.54126 21.7468 5.09907C21.9108 5.52095 22.1077 6.15845 22.1593 7.32563C22.2155 8.59126 22.2296 8.97095 22.2296 12.1725C22.2296 15.3788 22.2155 15.7584 22.1593 17.0194C22.1077 18.1913 21.9108 18.8241 21.7468 19.2459C21.5312 19.8038 21.2687 20.2069 20.8515 20.6241C20.4296 21.0459 20.0312 21.3038 19.4733 21.5194C19.0515 21.6834 18.414 21.8803 17.2468 21.9319C15.9812 21.9881 15.6015 22.0022 12.3999 22.0022C9.19365 22.0022 8.81397 21.9881 7.55303 21.9319C6.38115 21.8803 5.74834 21.6834 5.32647 21.5194C4.76865 21.3038 4.36553 21.0413 3.94834 20.6241C3.52646 20.2022 3.26865 19.8038 3.05303 19.2459C2.88896 18.8241 2.69209 18.1866 2.64053 17.0194C2.58428 15.7538 2.57021 15.3741 2.57021 12.1725C2.57021 8.96626 2.58428 8.58657 2.64053 7.32563C2.69209 6.15376 2.88896 5.52095 3.05303 5.09907C3.26865 4.54126 3.53115 4.13813 3.94834 3.72095C4.37021 3.29907 4.76865 3.04126 5.32647 2.82563C5.74834 2.66157 6.38584 2.4647 7.55303 2.41313C8.81397 2.35688 9.19365 2.34282 12.3999 2.34282ZM12.3999 0.181885C9.14209 0.181885 8.73428 0.195947 7.45459 0.252197C6.17959 0.308447 5.30303 0.514697 4.54365 0.81001C3.75146 1.11938 3.08115 1.5272 2.41553 2.19751C1.74521 2.86313 1.3374 3.53345 1.02803 4.32095C0.732715 5.08501 0.526465 5.95688 0.470215 7.23188C0.413965 8.51626 0.399902 8.92407 0.399902 12.1819C0.399902 15.4397 0.413965 15.8475 0.470215 17.1272C0.526465 18.4022 0.732715 19.2788 1.02803 20.0381C1.3374 20.8303 1.74521 21.5006 2.41553 22.1663C3.08115 22.8319 3.75147 23.2444 4.53897 23.5491C5.30303 23.8444 6.1749 24.0506 7.4499 24.1069C8.72959 24.1631 9.1374 24.1772 12.3952 24.1772C15.653 24.1772 16.0608 24.1631 17.3405 24.1069C18.6155 24.0506 19.4921 23.8444 20.2515 23.5491C21.039 23.2444 21.7093 22.8319 22.3749 22.1663C23.0405 21.5006 23.453 20.8303 23.7577 20.0428C24.053 19.2788 24.2593 18.4069 24.3155 17.1319C24.3718 15.8522 24.3858 15.4444 24.3858 12.1866C24.3858 8.92876 24.3718 8.52095 24.3155 7.24126C24.2593 5.96626 24.053 5.0897 23.7577 4.33032C23.4624 3.53345 23.0546 2.86313 22.3843 2.19751C21.7187 1.53188 21.0483 1.11938 20.2608 0.814697C19.4968 0.519385 18.6249 0.313135 17.3499 0.256885C16.0655 0.195947 15.6577 0.181885 12.3999 0.181885Z" fill="white"/>
<path d="M12.3999 6.01782C8.99678 6.01782 6.23584 8.77876 6.23584 12.1819C6.23584 15.585 8.99678 18.3459 12.3999 18.3459C15.803 18.3459 18.564 15.585 18.564 12.1819C18.564 8.77876 15.803 6.01782 12.3999 6.01782ZM12.3999 16.1803C10.1921 16.1803 8.40146 14.3897 8.40146 12.1819C8.40146 9.97407 10.1921 8.18345 12.3999 8.18345C14.6077 8.18345 16.3983 9.97407 16.3983 12.1819C16.3983 14.3897 14.6077 16.1803 12.3999 16.1803Z" fill="white"/>
<path d="M20.2468 5.77403C20.2468 6.5709 19.5999 7.21309 18.8077 7.21309C18.0108 7.21309 17.3687 6.56621 17.3687 5.77403C17.3687 4.97715 18.0155 4.33496 18.8077 4.33496C19.5999 4.33496 20.2468 4.98184 20.2468 5.77403Z" fill="white"/>
</g>
<defs>
<clipPath id="clip0_21_811">
<rect width="24" height="24" fill="white" transform="translate(0.399902 0.181885)"/>
</clipPath>
</defs>
</svg>
