<?xml version="1.0" encoding="utf-8"?>
<svg width="347" height="34" viewBox="0 0 347 34" fill="none" xmlns="http://www.w3.org/2000/svg">
  <path d="M 2.819 14.082 C 2.665 11.127 6.857 5.217 16.857 5.217 C 26.857 5.217 30.998 11.127 31.819 14.082 C 32.462 16.834 36.149 22.336 45.749 22.336 C 55.349 22.336 58.856 16.389 59.213 13.637 C 59.726 10.682 63.251 4.772 73.251 4.772 C 83.251 4.772 87.392 10.682 88.213 13.637 M 173.319 14.082 C 173.832 11.127 177.357 5.217 187.357 5.217 C 197.357 5.217 201.498 11.127 202.319 14.082 C 202.962 16.834 206.649 22.336 216.249 22.336 C 225.849 22.336 229.552 16.389 229.909 13.637 C 230.422 10.682 233.947 4.772 243.947 4.772 C 253.947 4.772 258.088 10.682 258.909 13.637 M 88.287 13.471 C 89.108 16.426 93.249 22.336 103.249 22.336 C 113.249 22.336 116.774 16.426 117.287 13.471 C 117.644 10.72 120.757 5.217 130.357 5.217 C 139.957 5.217 143.644 11.314 144.287 14.065 C 145.108 17.02 149.249 22.93 159.249 22.93 C 169.249 22.93 172.774 17.02 173.287 14.065 M 258.787 13.471 C 259.608 16.426 263.749 22.336 273.749 22.336 C 283.749 22.336 287.274 16.426 287.787 13.471 C 288.144 10.72 291.257 5.217 300.857 5.217 C 310.457 5.217 314.144 10.72 314.787 13.471 C 315.608 16.426 319.749 22.336 329.749 22.336 C 339.749 22.336 343.274 16.426 343.787 13.471" stroke="#FFCE1F" stroke-width="5" style=""/>
</svg>