<svg width="80" height="81" viewBox="0 0 80 81" fill="none" xmlns="http://www.w3.org/2000/svg">
<g clip-path="url(#clip0_21_674)">
<path d="M24.9691 59.0633C19.2919 51.848 16.7525 46.4289 15.9222 39.7703C15.7446 38.3444 14.445 37.3325 13.0186 37.5105C11.5927 37.6883 10.581 38.9883 10.7588 40.4141C11.7099 48.0428 14.6688 54.4119 20.9802 62.408C22.4021 64.1888 24.9038 63.6797 25.5805 61.7747C25.9172 60.8267 25.6772 59.7844 24.9691 59.0633Z" fill="#FCE69C"/>
<path d="M68.5969 32.2874C67.1669 32.2874 65.6759 32.4866 64.1741 32.8709V29.6856C64.1741 28.2488 63.0092 27.0839 61.5723 27.0839H58.9706V25.7106C58.9706 21.7286 57.8641 17.8331 55.7705 14.4456C53.6769 11.0581 50.6877 8.32641 47.1258 6.54547C45.4 5.68219 43.3606 6.9386 43.3606 8.87235C43.3606 13.1759 39.8594 16.6773 35.5556 16.6773H18.2116C11.9297 16.6773 6.67375 21.1536 5.465 27.0839H2.60172C1.16484 27.0841 0 28.2489 0 29.6856V34.3177C0 41.2453 1.08844 47.3825 3.32719 53.0792C5.33531 58.1892 8.34641 63.1988 12.8034 68.8447C15.3464 72.0663 19.1086 73.9138 23.1255 73.9138C33.973 73.9136 30.195 73.9136 41.0489 73.9138C45.0656 73.9138 48.8278 72.0663 51.3708 68.8447C52.8947 66.9142 54.2458 65.0592 55.4495 63.2481C56.3225 63.4181 57.2375 63.5069 58.1906 63.5069C66.4727 63.5069 75.5333 57.0745 78.8178 48.8633C82.342 40.0517 77.7117 32.2874 68.5969 32.2874ZM18.2116 21.8806H35.5559C41.2267 21.8806 46.0613 18.2338 47.8377 13.1617C51.5609 16.1992 53.7675 20.7544 53.7675 25.7105V27.0838H10.8523C11.9261 24.0555 14.8197 21.8806 18.2116 21.8806ZM52.163 58.7572C52.1195 58.8205 52.0794 58.8863 52.0414 58.9541C50.6245 61.2188 49.028 63.4149 47.2866 65.6209C45.7366 67.5845 43.4631 68.7106 41.0491 68.7106C30.3361 68.7105 33.9523 68.7105 23.1255 68.7106C20.7113 68.7106 18.4378 67.5844 16.8878 65.6209C9.87437 56.7366 5.20344 48.0134 5.20344 34.3177V32.2874C7.12062 32.2874 57.1247 32.2874 58.9709 32.2874V34.3177C58.9708 44.5144 56.3805 51.9544 52.163 58.7572ZM73.9864 46.9309C71.5519 53.0174 64.4706 58.1677 58.4241 58.2975C59.3588 56.5505 60.163 54.8203 60.8472 53.0791C62.642 48.5117 63.6956 43.6606 64.0436 38.3469C65.6103 37.7847 67.1619 37.4905 68.5972 37.4905C74.1633 37.4906 76.0675 41.728 73.9864 46.9309Z" fill="#FCE69C"/>
</g>
<defs>
<clipPath id="clip0_21_674">
<rect width="80" height="80" fill="white" transform="translate(0 0.0909424)"/>
</clipPath>
</defs>
</svg>
