<svg width="80" height="81" viewBox="0 0 80 81" fill="none" xmlns="http://www.w3.org/2000/svg">
<g clip-path="url(#clip0_21_336)">
<path d="M49.0505 15.5092C52.1258 13.025 52.822 10.3694 52.8644 8.5789C52.9678 4.22311 49.5283 1.0356 49.1356 0.686697C48.1631 -0.178305 46.6734 -0.0911171 45.8083 0.881541C44.9433 1.8542 45.0305 3.34373 46.0031 4.20889C46.0251 4.22858 48.2042 6.26733 48.152 8.46718C48.1242 9.63921 47.4492 10.7433 46.0884 11.8425C43.0131 14.3267 42.3169 16.9824 42.2745 18.7728C42.1709 23.1286 45.6106 26.3161 46.0031 26.6652C46.4533 27.0655 47.0151 27.2627 47.5747 27.2627C48.2241 27.2627 48.8705 26.9971 49.3351 26.4744C50.2001 25.5017 50.1177 24.0163 49.145 23.1513C48.5264 22.5888 46.933 20.7227 46.9872 18.8669C47.0214 17.7014 47.6962 16.603 49.0505 15.5092Z" fill="#FCE69C"/>
<path d="M34.0964 15.5092C37.1717 13.025 37.8679 10.3694 37.9103 8.5789C38.0137 4.22311 34.5742 1.0356 34.1815 0.686697C33.2092 -0.178305 31.7193 -0.0911171 30.8542 0.881541C29.9892 1.8542 30.0763 3.34373 31.049 4.20889C31.071 4.22858 33.2501 6.26733 33.1979 8.46718C33.1701 9.63921 32.4951 10.7433 31.1343 11.8425C28.059 14.3267 27.3627 16.9824 27.3204 18.7728C27.217 23.1286 30.6565 26.3161 31.049 26.6652C31.4992 27.0655 32.061 27.2627 32.6206 27.2627C33.2699 27.2627 33.9164 26.9971 34.381 26.4744C35.246 25.5017 35.1635 24.0163 34.1909 23.1513C33.5723 22.5888 31.9788 20.7227 32.0331 18.8669C32.0673 17.7014 32.7421 16.603 34.0964 15.5092Z" fill="#FCE69C"/>
<path d="M67.8371 38.5516H65.0477V36.8232C65.0477 35.5216 63.9925 34.4663 62.6908 34.4663H2.53852C1.23696 34.4663 0.181641 35.5215 0.181641 36.8232V49.262C0.181641 60.2531 6.26525 69.9176 15.3987 75.3773H2.53993C1.23836 75.3773 0.183047 76.4325 0.183047 77.7342C0.183047 79.0359 1.23805 80.0911 2.53993 80.0911H62.691C63.9925 80.0911 65.0479 79.0359 65.0479 77.7342C65.0479 76.4325 63.9927 75.3773 62.691 75.3773H49.8308C55.0246 72.2726 59.2319 67.8087 61.895 62.5134H67.8372C74.4435 62.5134 79.8182 57.1387 79.8182 50.5324C79.8182 43.9262 74.4433 38.5516 67.8371 38.5516ZM60.3341 49.262C60.3339 63.662 47.8991 75.3773 32.6147 75.3773C17.3303 75.3773 4.8954 63.662 4.8954 49.262V39.1801H60.3339V49.262H60.3341ZM67.8371 57.7998H63.7814C64.605 55.0874 65.0477 52.2229 65.0477 49.262V43.2651H67.8371C71.8443 43.2651 75.1044 46.5252 75.1044 50.5324C75.1044 54.5396 71.8443 57.7998 67.8371 57.7998Z" fill="#FCE69C"/>
<path d="M19.1425 15.5094C22.2178 13.0252 22.9141 10.3696 22.9564 8.57908C23.0598 4.22329 19.6203 1.03579 19.2276 0.68688C18.2551 -0.178122 16.7655 -0.0909341 15.9003 0.881724C15.0353 1.85423 15.1225 3.34392 16.0951 4.20907C16.1172 4.22876 18.2962 6.26752 18.244 8.46736C18.2162 9.6394 17.5412 10.7435 16.1804 11.8427C13.1051 14.3269 12.4089 16.9825 12.3665 18.773C12.2633 23.1286 15.7028 26.3162 16.0953 26.6652C16.5444 27.0646 17.1036 27.261 17.6608 27.261C18.3103 27.261 18.957 26.994 19.4228 26.4704C20.2878 25.4977 20.2006 24.0082 19.228 23.143C19.2059 23.1233 17.0269 21.0846 17.079 18.8847C17.1065 17.7127 17.7815 16.6085 19.1425 15.5094Z" fill="#FCE69C"/>
</g>
<defs>
<clipPath id="clip0_21_336">
<rect width="80" height="80" fill="white" transform="translate(0 0.0909424)"/>
</clipPath>
</defs>
</svg>
