<svg width="80" height="81" viewBox="0 0 80 81" fill="none" xmlns="http://www.w3.org/2000/svg">
<g clip-path="url(#clip0_21_666)">
<path d="M18.8151 38.129C18.7239 37.3703 18.6419 36.6101 18.5691 35.8482C18.5452 35.5939 18.5715 35.3374 18.6467 35.0934C18.7219 34.8493 18.8444 34.6224 19.0073 34.4257C19.1701 34.229 19.3702 34.0663 19.5959 33.9468C19.8216 33.8274 20.0687 33.7536 20.323 33.7297C20.5772 33.7058 20.8337 33.7321 21.0778 33.8073C21.3218 33.8825 21.5487 34.005 21.7454 34.1679C21.9421 34.3307 22.1049 34.5307 22.2243 34.7565C22.3437 34.9822 22.4175 35.2293 22.4414 35.4835C22.5098 36.2119 22.588 36.9392 22.676 37.6656C22.7366 38.1772 22.5918 38.692 22.2732 39.0969C21.9546 39.5017 21.4884 39.7636 20.9769 39.825C20.4654 39.8864 19.9504 39.7423 19.5451 39.4243C19.1397 39.1063 18.8772 38.6404 18.8151 38.129Z" fill="#FCE69C"/>
<path d="M23.448 57.4185C21.865 53.0917 20.6305 48.6453 19.7561 44.1217C19.6631 43.6172 19.7733 43.0965 20.0625 42.6728C20.3517 42.2491 20.7966 41.9569 21.3003 41.8597C21.804 41.7625 22.3257 41.8683 22.7518 42.1539C23.1778 42.4396 23.4738 42.882 23.5752 43.3849C24.4105 47.7041 25.5892 51.9498 27.1 56.0815C27.2746 56.5651 27.2505 57.0982 27.033 57.5642C26.8155 58.0301 26.4223 58.3909 25.9395 58.5677C25.4566 58.7445 24.9234 58.7228 24.4565 58.5074C23.9896 58.292 23.6269 57.9005 23.448 57.4185Z" fill="#FCE69C"/>
<path d="M77.4354 66.3871H56.2336C56.9103 64.9228 57.5465 63.4468 58.1423 61.959C59.5769 60.6677 61.1605 59.5524 62.8595 58.6367C69.8009 54.3883 78.439 49.1021 77.1305 39.3605C76.6547 36.4167 75.149 33.7375 72.8819 31.8004C70.6147 29.8633 67.7333 28.7942 64.7513 28.7836C64.7531 28.6461 64.7651 28.5107 64.7663 28.3731C64.7686 27.9222 64.6814 27.4752 64.5098 27.0582C64.3382 26.6411 64.0855 26.2623 63.7664 25.9436C63.4473 25.625 63.0681 25.3728 62.6508 25.2017C62.2335 25.0307 61.7865 24.9441 61.3355 24.9471H15.7793C15.3283 24.9444 14.8814 25.0312 14.4642 25.2023C14.047 25.3735 13.6679 25.6257 13.3487 25.9443C13.0296 26.2629 12.7768 26.6416 12.605 27.0585C12.4331 27.4754 12.3456 27.9222 12.3475 28.3732C12.4388 41.5091 15.3487 54.4723 20.8804 66.387H2.56413C2.02481 66.4443 1.5264 66.7012 1.1669 67.1072C0.807395 67.5133 0.612798 68.0392 0.621365 68.5815C0.621365 76.9595 12.1262 80 19.8586 80H60.141C67.8733 80 79.3782 76.9595 79.3782 68.5815L79.3801 68.3318C79.3801 67.816 79.1752 67.3214 78.8105 66.9567C78.4458 66.592 77.9512 66.3871 77.4354 66.3871ZM64.1117 38.6554C64.4653 38.5516 64.8365 38.5217 65.2022 38.5674C65.5679 38.6132 65.9202 38.7336 66.2374 38.9213C66.5546 39.109 66.8298 39.3599 67.0458 39.6585C67.2619 39.957 67.4143 40.2968 67.4935 40.6568C67.7842 42.8194 66.1255 44.7501 62.6625 47.195C63.2698 44.377 63.7711 41.534 64.1117 38.6554ZM73.2753 39.8791C74.274 47.3115 66.9928 51.5424 60.4528 55.5516C60.7474 54.623 61.0193 53.6889 61.2836 52.7524C67.4745 48.8944 72.0596 45.4359 71.3486 40.1383C71.0598 38.5479 70.2067 37.1151 68.9462 36.1032C67.6856 35.0914 66.1022 34.5684 64.487 34.6304C64.5356 33.9756 64.5753 33.3194 64.6104 32.6619C66.6783 32.633 68.6884 33.3446 70.2775 34.6682C71.8665 35.9918 72.9299 37.84 73.2753 39.8791ZM16.2426 28.8366H60.8712C60.7125 41.8603 57.6623 54.6861 51.9412 66.3871H25.1727C19.4518 54.686 16.4017 41.8603 16.2426 28.8366ZM60.141 76.1106H19.8585C14.2257 76.1106 6.56084 74.2865 4.85637 70.2765H75.1432C73.4387 74.2865 65.7738 76.1106 60.141 76.1106Z" fill="#FCE69C"/>
<path d="M39.7705 18.9724C42.7463 14.5825 41.1461 12.9054 39.2075 11.2594C35.928 8.4716 34.7931 5.31166 37.8475 0.568112C38.0332 0.285481 38.3194 0.0900259 38.6439 0.0242545C38.9684 -0.041517 39.3048 0.0277138 39.5801 0.216892C39.8555 0.406071 40.0473 0.699895 40.1141 1.03446C40.1808 1.36903 40.117 1.71729 39.9364 2.00349C37.3906 5.95803 38.8642 7.61075 40.802 9.2576C44.1461 12.0994 45.3075 15.3212 41.8263 20.4597C41.6341 20.7378 41.3433 20.9263 41.0172 20.984C40.6912 21.0418 40.3562 20.9643 40.0852 20.7682C39.8142 20.5722 39.6291 20.2735 39.5702 19.9372C39.5113 19.6009 39.5832 19.2541 39.7705 18.9724Z" fill="#FCE69C"/>
<path d="M46.1289 16.3728C49.0066 12.8312 47.1528 11.6836 45.6817 10.6405C42.4833 8.36999 41.39 5.72286 44.3811 1.85081C44.5966 1.57782 44.9244 1.39159 45.2932 1.33262C45.662 1.27365 46.0421 1.34669 46.3508 1.53587C46.6595 1.72505 46.8718 2.01508 46.9417 2.34293C47.0116 2.67077 46.9334 3.00993 46.724 3.28669C44.274 6.45831 45.9648 7.60145 47.4546 8.65979C50.758 11.0028 51.799 13.715 48.433 17.8582C48.2111 18.1286 47.8779 18.3097 47.5065 18.3619C47.135 18.4141 46.7554 18.3332 46.4507 18.1368C46.1461 17.9404 45.9412 17.6445 45.8809 17.314C45.8206 16.9834 45.9098 16.645 46.1289 16.3728Z" fill="#FCE69C"/>
<path d="M33.0002 17.6854C35.8744 14.1484 34.0336 13.0039 32.5529 11.9525C29.3519 9.68039 28.2679 7.02629 31.2521 3.16343C31.4677 2.89044 31.7955 2.70422 32.1644 2.64524C32.5332 2.58627 32.9133 2.65931 33.2221 2.84849C33.5308 3.03768 33.7432 3.32771 33.8131 3.65555C33.883 3.98339 33.8047 4.32255 33.5953 4.59931C31.1424 7.77434 32.8413 8.91891 34.3259 9.97179C37.6641 12.3427 38.6491 15.0544 35.3045 19.1708C35.0825 19.4412 34.7494 19.6223 34.3778 19.6745C34.0063 19.7267 33.6267 19.6458 33.322 19.4494C33.0173 19.253 32.8124 18.9572 32.7521 18.6266C32.6918 18.296 32.781 17.9576 33.0002 17.6854Z" fill="#FCE69C"/>
</g>
<defs>
<clipPath id="clip0_21_666">
<rect width="80" height="80" fill="white" transform="translate(0 0.0909424)"/>
</clipPath>
</defs>
</svg>
