<svg width="80" height="81" viewBox="0 0 80 81" fill="none" xmlns="http://www.w3.org/2000/svg">
<g clip-path="url(#clip0_21_690)">
<path d="M66.7278 3.23717C66.6019 3.07033 66.4391 2.93498 66.2521 2.84177C66.065 2.74856 65.8589 2.70005 65.65 2.70004H60.25C59.9566 2.70003 59.6713 2.79554 59.4371 2.97213C59.2029 3.14872 59.0326 3.39679 58.9519 3.67879L56.2 13.3115V12.3665C56.2001 11.8085 56.0848 11.2564 55.8614 10.745C55.6381 10.2335 55.3114 9.77382 54.9018 9.39466C54.4923 9.01551 54.0089 8.72512 53.4818 8.54171C52.9547 8.3583 52.3954 8.28583 51.839 8.32886L46.75 8.71969V1.35004C46.75 1.13614 46.6992 0.9253 46.6017 0.734893C46.5042 0.544485 46.3629 0.379961 46.1894 0.254878C46.0159 0.129796 45.8151 0.0477354 45.6037 0.0154584C45.3922 -0.0168187 45.1761 0.00161183 44.9732 0.0692314L30.6185 4.85363C29.8119 5.12207 29.1104 5.6377 28.6135 6.32736C28.1165 7.01702 27.8494 7.84567 27.85 8.69572V10.1726L22.1392 10.6114C21.1232 10.694 20.1753 11.1549 19.4828 11.9029C18.7904 12.6509 18.404 13.6316 18.4 14.6509V16.2591C17.6117 16.5399 16.9293 17.0572 16.4461 17.7404C15.9628 18.4235 15.7023 19.2392 15.7 20.076V21.6H14.35C13.992 21.6 13.6486 21.7423 13.3954 21.9954C13.1422 22.2486 13 22.592 13 22.95V39.15C13 39.2097 13.0039 39.2694 13.0118 39.3285L17.7874 75.1422C18.0078 76.7616 18.8066 78.2467 20.0362 79.3233C21.2659 80.4 22.8435 80.9955 24.4779 81H48.9255C50.5245 81.0042 52.0727 80.4389 53.2928 79.4054C54.5129 78.3719 55.325 76.9376 55.5837 75.3597L61.5816 39.3719C61.5938 39.2986 61.5999 39.2244 61.6 39.15V23.1394L66.948 4.42129C67.0054 4.22034 67.0155 4.00879 66.9772 3.80331C66.939 3.59783 66.8536 3.40403 66.7278 3.23717ZM21.1 24.3H34.6V31.05C34.6 31.4081 34.4578 31.7514 34.2046 32.0046C33.9514 32.2578 33.608 32.4 33.25 32.4C32.8919 32.4 32.5486 32.2578 32.2954 32.0046C32.0422 31.7514 31.9 31.4081 31.9 31.05C31.9 29.9759 31.4733 28.9458 30.7138 28.1862C29.9542 27.4267 28.9241 27 27.85 27C26.7759 27 25.7457 27.4267 24.9862 28.1862C24.2267 28.9458 23.8 29.9759 23.8 31.05V36.45C23.8 36.8081 23.6578 37.1514 23.4046 37.4046C23.1514 37.6578 22.808 37.8 22.45 37.8C22.0919 37.8 21.7486 37.6578 21.4954 37.4046C21.2422 37.1514 21.1 36.8081 21.1 36.45V24.3ZM37.3 24.3H58.9V27H37.3V24.3ZM30.55 8.69572C30.5498 8.41235 30.6389 8.13612 30.8045 7.90622C30.9702 7.67632 31.204 7.50442 31.4729 7.41491L44.05 3.22317V8.92691L30.55 9.96472V8.69572ZM22.3459 13.3038L52.0458 11.0206C52.2313 11.006 52.4179 11.03 52.5936 11.0911C52.7694 11.1521 52.9307 11.2488 53.0672 11.3752C53.2038 11.5016 53.3128 11.6548 53.3872 11.8254C53.4617 11.9959 53.5001 12.18 53.5 12.366V13.7667L21.1 15.9267V14.6509C21.1011 14.3111 21.2298 13.9841 21.4605 13.7347C21.6912 13.4852 22.0072 13.3314 22.3459 13.3038ZM18.4 20.076C18.4008 19.7338 18.5313 19.4045 18.7651 19.1546C18.999 18.9046 19.3188 18.7526 19.6602 18.7289L54.7602 16.389C54.9446 16.3767 55.1296 16.4024 55.3036 16.4645C55.4777 16.5267 55.6372 16.6238 55.7721 16.7501C55.9071 16.8763 56.0147 17.0289 56.0883 17.1985C56.1619 17.368 56.1999 17.5508 56.2 17.7357V21.6H18.4V20.076ZM18.4 24.3V27H15.7V24.3H18.4ZM52.9203 74.9157C52.7651 75.8624 52.2778 76.723 51.5458 77.3431C50.8138 77.9633 49.8849 78.3025 48.9255 78.3H24.4779C23.4972 78.2973 22.5506 77.94 21.8127 77.2941C21.0748 76.6481 20.5956 75.757 20.4633 74.7853L15.7 39.0604V29.7H18.4V36.45C18.4 37.5241 18.8267 38.5543 19.5862 39.3138C20.3457 40.0733 21.3759 40.5 22.45 40.5C23.5241 40.5 24.5543 40.0733 25.3138 39.3138C26.0733 38.5543 26.5 37.5241 26.5 36.45V31.05C26.5 30.692 26.6422 30.3486 26.8954 30.0954C27.1486 29.8422 27.4919 29.7 27.85 29.7C28.208 29.7 28.5514 29.8422 28.8046 30.0954C29.0578 30.3486 29.2 30.692 29.2 31.05C29.2 32.1241 29.6267 33.1543 30.3862 33.9138C31.1457 34.6733 32.1759 35.1 33.25 35.1C34.3241 35.1 35.3542 34.6733 36.1138 33.9138C36.8733 33.1543 37.3 32.1241 37.3 31.05V29.7H58.9V39.0383L52.9203 74.9157ZM59.2316 21.6H58.9V17.7357C58.8986 17.01 58.7029 16.2979 58.3331 15.6735L61.2684 5.40004H63.8602L59.2316 21.6Z" fill="#FCE69C"/>
<path d="M36.75 72H34.25C33.9185 72 33.6005 72.158 33.3661 72.4393C33.1317 72.7206 33 73.1022 33 73.5C33 73.8978 33.1317 74.2794 33.3661 74.5607C33.6005 74.842 33.9185 75 34.25 75H36.75C37.0815 75 37.3995 74.842 37.6339 74.5607C37.8683 74.2794 38 73.8978 38 73.5C38 73.1022 37.8683 72.7206 37.6339 72.4393C37.3995 72.158 37.0815 72 36.75 72Z" fill="#FCE69C"/>
<path d="M47.7543 75H43.2083C42.8878 75 42.5805 74.8595 42.3539 74.6095C42.1273 74.3594 42 74.0203 42 73.6667C42 73.313 42.1273 72.9739 42.3539 72.7239C42.5805 72.4738 42.8878 72.3333 43.2083 72.3333H47.7543L49.5998 60.1142C49.6259 59.9415 49.6826 59.7761 49.7665 59.6276C49.8505 59.479 49.9602 59.3502 50.0893 59.2484C50.2185 59.1466 50.3645 59.0739 50.5191 59.0344C50.6737 58.9949 50.8338 58.9894 50.9903 59.0181C51.1468 59.0469 51.2967 59.1094 51.4313 59.2021C51.5659 59.2948 51.6827 59.4159 51.7749 59.5583C51.8671 59.7008 51.933 59.862 51.9688 60.0325C52.0046 60.2031 52.0096 60.3798 51.9836 60.5525L50.1384 72.7718C50.0458 73.3953 49.755 73.9619 49.3181 74.3703C48.8812 74.7786 48.3269 75.0018 47.7543 75Z" fill="#FCE69C"/>
</g>
<defs>
<clipPath id="clip0_21_690">
<rect width="80" height="80" fill="white" transform="translate(0 0.0909424)"/>
</clipPath>
</defs>
</svg>
