<svg width="80" height="81" viewBox="0 0 80 81" fill="none" xmlns="http://www.w3.org/2000/svg">
<path d="M65.3282 28.4487H64.7887L65.1185 25.3058C65.4328 20.4801 62.2592 15.3763 57.5015 13.3458C57.3833 13.2955 57.2647 13.244 57.1447 13.1918C57.0236 12.9761 56.8932 12.7616 56.7479 12.5491C55.7547 11.099 54.2086 9.84497 52.2775 8.79507C50.6474 7.90913 49.8936 7.44453 48.7648 6.93169C47.7825 6.48551 46.6791 6.20601 45.6077 6.09048C43.8057 5.89627 42.1526 7.34577 42.5659 9.00211C42.787 9.88928 43.3976 10.1243 43.5393 10.2096C39.7912 7.95303 33.3857 6.29669 28.1301 6.02402C27.8435 6.00911 27.559 6 27.2837 6C24.7372 6 22.8089 6.69007 21.8535 7.94309C21.3609 8.58927 21.1947 9.40046 21.3857 10.227C21.4956 10.7032 21.72 11.1591 22.0035 11.5777C17.0841 10.2646 12.5485 10.0533 10.3659 10.0398C10.3184 10.0396 10.2808 10.0394 10.2541 10.039C10.1239 10.0292 9.99168 10.0243 9.86068 10.0243C6.95629 10.0243 4.60442 11.9717 4.39036 14.5537C4.34593 15.0877 4.39263 15.6065 4.51723 16.0985C2.91915 17.2326 1.7302 18.4256 1.01609 19.5991C-0.275558 21.7219 0.0230222 25.092 0.0451316 25.3035L2.51085 48.9498C2.53626 54.7124 4.1488 59.7027 7.2185 63.6479H3.03383C2.5063 63.6479 2.01473 63.9169 1.72979 64.3614C1.44464 64.8059 1.40496 65.3657 1.62399 65.8463L4.93007 73.0927C5.18237 73.6453 5.73324 74 6.3397 74H58.8237C59.4304 74 59.9809 73.6453 60.2329 73.0927L63.539 65.8463C63.7587 65.3657 63.7186 64.8061 63.4336 64.3614C63.1483 63.9169 62.6571 63.6479 62.1296 63.6479H57.936C59.1537 62.0816 60.142 60.3508 60.8923 58.4719H65.328C69.7888 58.4719 73.3308 57.2677 75.8556 54.8929C78.6057 52.3068 80 48.4608 80 43.459C80.0002 34.3409 74.2412 28.4487 65.3282 28.4487ZM62.6396 48.9508L63.8773 37.1445H64.2949C64.5819 37.1445 71.3215 37.2163 71.3215 43.4615C71.3215 49.9072 64.5819 49.9811 64.2949 49.9811H62.6156C62.6288 49.6403 62.6385 49.2974 62.6396 48.9508ZM62.2503 22.447H55.8181C55.8875 22.4016 55.9569 22.3555 56.0264 22.3062C57.1653 21.4998 58.1968 19.4238 58.1718 17.0335C60.6012 18.5068 61.9742 20.3172 62.2503 22.447ZM7.47906 14.8115C7.56956 13.7193 8.7738 13.1301 9.86047 13.1301C9.91978 13.1301 9.9799 13.1326 10.0396 13.1376C10.0723 13.1403 10.1764 13.1446 10.3465 13.1456C13.2976 13.1639 20.8608 13.5653 27.3368 16.8931C27.9389 17.2024 28.6719 17.0846 29.1473 16.602C29.6224 16.1194 29.7304 15.3836 29.4133 14.7844C28.1045 12.3092 26.0966 11.1531 25.8425 11.016L25.8445 11.017C26.2679 11.2293 24.4167 10.1653 24.4688 9.68928C24.5891 8.58844 25.977 8.79548 27.4819 8.79548C27.6999 8.79548 28.9066 8.97519 29.1349 9.00252C34.2122 9.60977 37.9316 10.4379 44.602 13.8717C45.0799 14.1177 45.6703 13.9771 46.0957 13.6479C46.5216 13.3187 46.7462 12.7922 46.6902 12.2566C46.6499 11.8703 46.5679 11.5682 46.5057 11.3549C46.0788 10.2448 44.7272 9.69839 45.4589 9.20956C46.0788 8.79548 47.1076 9.05739 47.5252 9.20956C49.7981 10.0377 50.3701 10.2992 51.4512 11.0729C52.8976 12.1081 53.6691 13.0154 54.344 14.1786C55.4594 16.1016 55.6363 17.7662 54.7525 19.137C54.6496 19.2966 54.5333 19.4472 54.4074 19.5844C54.3965 19.596 54.3863 19.6078 54.376 19.6196C54.3642 19.631 54.3527 19.6426 54.3413 19.6542C53.8539 20.1538 51.4514 21.011 49.4254 20.0757C46.6782 18.8078 41.9681 16.525 34.9689 14.156C34.4354 13.9755 33.8461 14.0991 33.4297 14.479C33.0132 14.8587 32.8353 15.4351 32.9648 15.9844C33.5306 18.3842 32.8898 19.4701 32.3581 20.0782C31.8984 20.6043 31.4897 20.7909 30.1106 20.7909C28.6029 20.7909 27.2339 20.5377 26.924 20.402C19.9583 17.2685 14.0321 16.8005 11.1199 16.8005C10.3415 16.8005 9.81129 16.8339 9.56788 16.8515C8.45043 16.7165 7.38546 15.9366 7.47906 14.8115ZM47.3227 22.447H34.3825C34.4858 22.346 34.5883 22.2397 34.6891 22.124C35.7062 20.9606 36.2368 19.5432 36.2783 17.891C41.3587 19.6737 45.1318 21.23 47.3227 22.447ZM4.02896 20.9782C4.37878 20.431 5.07905 19.6161 6.21139 18.7033C7.06559 19.396 8.16735 19.8528 9.40816 19.9563C9.45403 19.9604 9.50094 19.9625 9.54701 19.9625C9.56375 19.9625 9.6214 19.9617 9.71852 19.9542C9.87494 19.9422 10.3514 19.906 11.1197 19.906C13.5207 19.906 18.1687 20.2581 23.7756 22.4468H3.47044C3.52395 22.041 3.67376 21.5335 4.02896 20.9782ZM59.7174 66.7539L57.8282 70.8948H7.33525L5.44603 66.7539H59.7174ZM59.549 48.7049C59.5434 48.7579 59.5405 48.8113 59.5405 48.8645C59.5362 51.1865 59.2419 53.3614 58.6704 55.3666L57.4972 58.4723C56.5644 60.4172 55.3183 62.152 53.7722 63.6483H11.3837C9.83609 62.1518 8.58908 60.417 7.65532 58.4723L6.48104 55.3666C5.90867 53.3608 5.61423 51.1863 5.61009 48.8641C5.60989 48.8111 5.60699 48.7583 5.60162 48.7055L3.18736 25.5526H61.9759L59.549 48.7049ZM65.3282 55.3666H61.8829C62.0641 54.6248 62.2139 53.8648 62.33 53.0867H64.2951C65.1164 53.0867 67.9954 52.9496 70.569 51.1852C72.3262 49.9805 74.4212 47.6624 74.4212 43.4595C74.4212 39.3416 72.3181 37.0712 70.5541 35.8915C67.9834 34.1724 65.1135 34.0388 64.2951 34.0388H64.2031L64.4635 31.5543H65.3284C72.5745 31.5543 76.901 36.0049 76.901 43.4615C76.9008 51.3612 73.007 55.3666 65.3282 55.3666Z" fill="#FCE69C"/>
</svg>
