<svg width="80" height="81" viewBox="0 0 80 81" fill="none" xmlns="http://www.w3.org/2000/svg">
<g clip-path="url(#clip0_21_694)">
<path d="M27.6382 22.4972C27.6382 23.1444 28.1629 23.669 28.8101 23.669H42.0613C42.7085 23.669 43.2332 23.1444 43.2332 22.4972C43.2332 21.85 42.7085 21.3253 42.0613 21.3253H40.1688C40.248 20.9672 40.2885 20.5978 40.2885 20.222C40.2885 17.485 38.1116 15.2584 35.4357 15.2584C32.7599 15.2584 30.5829 17.4851 30.5829 20.222C30.5829 20.5976 30.6232 20.967 30.7026 21.3253H28.8101C28.1629 21.3253 27.6382 21.85 27.6382 22.4972ZM35.4357 17.6022C36.8191 17.6022 37.9447 18.7775 37.9447 20.2222C37.9447 20.6094 37.8655 20.9831 37.7127 21.3255H33.1588C33.006 20.9831 32.9268 20.6094 32.9268 20.2222C32.9266 18.7775 34.0522 17.6022 35.4357 17.6022Z" fill="#FCE69C"/>
<path d="M56.7614 21.3648C56.773 21.2373 56.7789 21.1091 56.7789 20.9805V19.4638C56.7789 17.1805 54.9883 15.3164 52.7663 15.2597L59.3116 1.77485C59.5942 1.19251 59.3513 0.491569 58.7691 0.208913C58.1869 -0.0737431 57.4856 0.169226 57.2031 0.751413L47.2169 21.3253H46.1839C45.5367 21.3253 45.012 21.85 45.012 22.4972C45.012 23.1444 45.5367 23.6691 46.1839 23.6691H47.9248C47.9414 23.6694 47.9583 23.6694 47.975 23.6691H50.8955C51.5427 23.6691 52.0673 23.1444 52.0673 22.4972C52.0673 21.85 51.5427 21.3253 50.8955 21.3253H49.8222L51.6292 17.6022H52.6622C53.6397 17.6022 54.435 18.4373 54.435 19.4638V20.9805C54.435 21.3145 54.352 21.6316 54.1881 21.9228C53.9841 22.2856 53.988 22.7295 54.1981 23.0889C54.4083 23.4481 54.7934 23.6691 55.2097 23.6691H56.1958C57.1733 23.6691 57.9686 24.5042 57.9686 25.5306V27.0473C57.9686 28.0738 57.1733 28.9089 56.1958 28.9089H40.1228C39.4756 28.9089 38.9509 29.4336 38.9509 30.0808V31.5975C38.9509 32.6239 38.1556 33.4591 37.1781 33.4591C36.2006 33.4591 35.4053 32.6239 35.4053 31.5975C35.4053 30.9503 34.8806 30.4256 34.2334 30.4256C33.5862 30.4256 33.0616 30.9503 33.0616 31.5975V39.1811C33.0616 40.2075 32.2663 41.0427 31.2888 41.0427C30.3113 41.0427 29.5159 40.2075 29.5159 39.1811V30.0808C29.5159 29.4336 28.9912 28.9089 28.3441 28.9089H23.8042C22.8267 28.9089 22.0314 28.0738 22.0314 27.0473V25.5306C22.0314 24.5042 22.8267 23.6691 23.8042 23.6691H24.7903C25.2066 23.6691 25.5916 23.4481 25.8019 23.0889C26.012 22.7295 26.0159 22.2856 25.8119 21.9228C25.6481 21.6316 25.565 21.3145 25.565 20.9805V19.4638C25.565 18.4373 26.3603 17.6022 27.3378 17.6022H29.2073C29.6236 17.6022 30.0086 17.3813 30.2189 17.022C30.4291 16.6628 30.433 16.2189 30.2289 15.8561C30.0652 15.565 29.9822 15.2478 29.9822 14.9138V13.397C29.9822 12.3706 30.7775 11.5355 31.755 11.5355H35.4359C35.9195 11.5355 36.3534 11.2386 36.5283 10.7878L38.0638 6.83329C38.3858 6.00423 39.1458 5.4686 40.0002 5.4686C40.8545 5.4686 41.6147 6.00423 41.9366 6.83329L43.472 10.7878C43.647 11.2386 44.0808 11.5355 44.5644 11.5355H48.2453C48.5761 11.5355 48.8983 11.6314 49.177 11.8131C49.7192 12.1663 50.4453 12.013 50.7986 11.4706C51.1517 10.9283 50.9984 10.2023 50.4561 9.84907C49.7956 9.41907 49.0312 9.19172 48.2453 9.19172H45.3666L44.1214 5.98485C43.4466 4.24719 41.8289 3.12469 40 3.12469C38.1711 3.12469 36.5534 4.24719 35.8787 5.98469L34.6336 9.19157H31.7548C29.485 9.19157 27.6383 11.0781 27.6383 13.3969V14.9136C27.6383 15.0288 27.643 15.1439 27.6523 15.2584H27.3378C25.068 15.2584 23.2212 17.145 23.2212 19.4638V20.9805C23.2212 21.1091 23.2272 21.2373 23.2387 21.3648C21.2352 21.647 19.6875 23.4077 19.6875 25.5306V27.0473C19.6875 28.7781 20.7164 30.2681 22.182 30.9123L22.6272 36.2367C22.6277 36.2433 22.6283 36.2498 22.6288 36.2564L23.4363 45.9163C23.5119 46.8219 24.0389 47.5742 24.7839 47.9556L26.0844 72.9797C26.1431 74.1103 26.8827 75.047 27.8859 75.3881L28.8097 78.2428C29.1675 79.3481 30.1769 80.0909 31.3214 80.0909H48.6784C49.823 80.0909 50.8325 79.3483 51.1902 78.2428L52.1139 75.3881C53.1172 75.047 53.8567 74.1103 53.9155 72.9797L55.2159 47.9558C55.9609 47.5744 56.488 46.822 56.5636 45.9164L56.7369 43.8419C56.7377 43.8341 56.7383 43.8263 56.7389 43.8184L57.8178 30.9125C59.2834 30.2681 60.3123 28.7781 60.3123 27.0475V25.5308C60.3125 23.4077 58.7648 21.647 56.7614 21.3648ZM24.5625 31.2527H27.172V34.9758H24.8738L24.5625 31.2527ZM54.2281 45.7211C54.2206 45.8111 54.1597 45.8816 54.0895 45.8816C53.4659 45.8816 52.9516 46.3698 52.9192 46.9927L51.575 72.858C51.5655 73.04 51.4338 73.1827 51.275 73.1827H46.38C45.7328 73.1827 45.2081 73.7073 45.2081 74.3545C45.2081 75.0017 45.7328 75.5264 46.38 75.5264H49.6058L48.9603 77.5212C48.9166 77.6564 48.8033 77.7473 48.6784 77.7473H31.3216C31.1967 77.7473 31.0834 77.6564 31.0397 77.5214L30.3942 75.5264H42.0123C42.6595 75.5264 43.1842 75.0017 43.1842 74.3545C43.1842 73.7073 42.6595 73.1827 42.0123 73.1827H28.725C28.5662 73.1827 28.4345 73.04 28.425 72.8581L27.0808 46.9928C27.0484 46.3702 26.5341 45.8817 25.9105 45.8817C25.8403 45.8817 25.7794 45.8113 25.7719 45.7213L25.0695 37.3197H27.172V39.1813C27.172 41.5 29.0187 43.3866 31.2886 43.3866C33.3039 43.3866 34.9858 41.8995 35.3375 39.943L39.1712 42.4113C41.7034 44.0416 44.6211 44.9033 47.6091 44.9033H54.2964L54.2281 45.7211ZM54.4923 42.5594H47.6091C45.072 42.5594 42.593 41.8267 40.44 40.4405L35.8228 37.4678C35.6855 37.3794 35.5459 37.2927 35.4053 37.2081V35.3925C35.9425 35.6555 36.5438 35.8028 37.1781 35.8028C39.448 35.8028 41.2947 33.9163 41.2947 31.5975V31.2527H55.4375L54.4923 42.5594Z" fill="#FCE69C"/>
</g>
<defs>
<clipPath id="clip0_21_694">
<rect width="80" height="80" fill="white" transform="translate(0 0.0909424)"/>
</clipPath>
</defs>
</svg>
