<svg width="32" height="33" viewBox="0 0 32 33" fill="none" xmlns="http://www.w3.org/2000/svg">
<g clip-path="url(#clip0_21_850)">
<path d="M24.125 14.4659C24.8154 14.4659 25.375 13.9063 25.375 13.2159C25.375 12.5256 24.8154 11.9659 24.125 11.9659C23.4346 11.9659 22.875 12.5256 22.875 13.2159C22.875 13.9063 23.4346 14.4659 24.125 14.4659Z" fill="black"/>
<path d="M27 2.59094H25.375V1.34094C25.375 0.650567 24.8154 0.0909424 24.125 0.0909424C23.4346 0.0909424 22.875 0.650567 22.875 1.34094V2.59094H17.1875V1.34094C17.1875 0.650567 16.6279 0.0909424 15.9375 0.0909424C15.2471 0.0909424 14.6875 0.650567 14.6875 1.34094V2.59094H9.0625V1.34094C9.0625 0.650567 8.50287 0.0909424 7.8125 0.0909424C7.12213 0.0909424 6.5625 0.650567 6.5625 1.34094V2.59094H5C2.243 2.59094 0 4.83394 0 7.59094V27.0909C0 29.8479 2.243 32.0909 5 32.0909H14.5625C15.2529 32.0909 15.8125 31.5313 15.8125 30.8409C15.8125 30.1506 15.2529 29.5909 14.5625 29.5909H5C3.6215 29.5909 2.5 28.4694 2.5 27.0909V7.59094C2.5 6.21244 3.6215 5.09094 5 5.09094H6.5625V6.34094C6.5625 7.03132 7.12213 7.59094 7.8125 7.59094C8.50287 7.59094 9.0625 7.03132 9.0625 6.34094V5.09094H14.6875V6.34094C14.6875 7.03132 15.2471 7.59094 15.9375 7.59094C16.6279 7.59094 17.1875 7.03132 17.1875 6.34094V5.09094H22.875V6.34094C22.875 7.03132 23.4346 7.59094 24.125 7.59094C24.8154 7.59094 25.375 7.03132 25.375 6.34094V5.09094H27C28.3785 5.09094 29.5 6.21244 29.5 7.59094V14.7159C29.5 15.4063 30.0596 15.9659 30.75 15.9659C31.4404 15.9659 32 15.4063 32 14.7159V7.59094C32 4.83394 29.757 2.59094 27 2.59094Z" fill="black"/>
<path d="M24.4375 16.9659C20.2675 16.9659 16.875 20.3584 16.875 24.5284C16.875 28.6984 20.2675 32.0909 24.4375 32.0909C28.6075 32.0909 32 28.6984 32 24.5284C32 20.3584 28.6075 16.9659 24.4375 16.9659ZM24.4375 29.5909C21.6461 29.5909 19.375 27.3199 19.375 24.5284C19.375 21.7369 21.6461 19.4659 24.4375 19.4659C27.2289 19.4659 29.5 21.7369 29.5 24.5284C29.5 27.3199 27.2289 29.5909 24.4375 29.5909Z" fill="black"/>
<path d="M26.25 23.2784H25.6875V21.9659C25.6875 21.2756 25.1279 20.7159 24.4375 20.7159C23.7471 20.7159 23.1875 21.2756 23.1875 21.9659V24.5284C23.1875 25.2188 23.7471 25.7784 24.4375 25.7784H26.25C26.9404 25.7784 27.5 25.2188 27.5 24.5284C27.5 23.8381 26.9404 23.2784 26.25 23.2784Z" fill="black"/>
<path d="M18.6875 14.4659C19.3779 14.4659 19.9375 13.9063 19.9375 13.2159C19.9375 12.5256 19.3779 11.9659 18.6875 11.9659C17.9971 11.9659 17.4375 12.5256 17.4375 13.2159C17.4375 13.9063 17.9971 14.4659 18.6875 14.4659Z" fill="black"/>
<path d="M13.25 19.9034C13.9404 19.9034 14.5 19.3438 14.5 18.6534C14.5 17.9631 13.9404 17.4034 13.25 17.4034C12.5596 17.4034 12 17.9631 12 18.6534C12 19.3438 12.5596 19.9034 13.25 19.9034Z" fill="black"/>
<path d="M7.8125 14.4659C8.50286 14.4659 9.0625 13.9063 9.0625 13.2159C9.0625 12.5256 8.50286 11.9659 7.8125 11.9659C7.12214 11.9659 6.5625 12.5256 6.5625 13.2159C6.5625 13.9063 7.12214 14.4659 7.8125 14.4659Z" fill="black"/>
<path d="M7.8125 19.9034C8.50286 19.9034 9.0625 19.3438 9.0625 18.6534C9.0625 17.9631 8.50286 17.4034 7.8125 17.4034C7.12214 17.4034 6.5625 17.9631 6.5625 18.6534C6.5625 19.3438 7.12214 19.9034 7.8125 19.9034Z" fill="black"/>
<path d="M7.8125 25.3409C8.50286 25.3409 9.0625 24.7813 9.0625 24.0909C9.0625 23.4006 8.50286 22.8409 7.8125 22.8409C7.12214 22.8409 6.5625 23.4006 6.5625 24.0909C6.5625 24.7813 7.12214 25.3409 7.8125 25.3409Z" fill="black"/>
<path d="M13.25 25.3409C13.9404 25.3409 14.5 24.7813 14.5 24.0909C14.5 23.4006 13.9404 22.8409 13.25 22.8409C12.5596 22.8409 12 23.4006 12 24.0909C12 24.7813 12.5596 25.3409 13.25 25.3409Z" fill="black"/>
<path d="M13.25 14.4659C13.9404 14.4659 14.5 13.9063 14.5 13.2159C14.5 12.5256 13.9404 11.9659 13.25 11.9659C12.5596 11.9659 12 12.5256 12 13.2159C12 13.9063 12.5596 14.4659 13.25 14.4659Z" fill="black"/>
</g>
<defs>
<clipPath id="clip0_21_850">
<rect width="32" height="32" fill="white" transform="translate(0 0.0909424)"/>
</clipPath>
</defs>
</svg>
