<svg width="32" height="33" viewBox="0 0 32 33" fill="none" xmlns="http://www.w3.org/2000/svg">
<g clip-path="url(#clip0_21_866)">
<path d="M21.7012 18.9166L17.2395 15.5704V8.75402C17.2395 8.06865 16.6855 7.51465 16.0001 7.51465C15.3147 7.51465 14.7607 8.06865 14.7607 8.75402V16.1901C14.7607 16.5805 14.9442 16.9486 15.2565 17.1816L20.2139 20.8997C20.4369 21.067 20.6972 21.1476 20.9562 21.1476C21.3342 21.1476 21.7061 20.9778 21.949 20.6506C22.3606 20.104 22.249 19.3269 21.7012 18.9166Z" fill="black"/>
<path d="M16 0.0909424C7.17706 0.0909424 0 7.268 0 16.0909C0 24.9139 7.17706 32.0909 16 32.0909C24.8229 32.0909 32 24.9139 32 16.0909C32 7.268 24.8229 0.0909424 16 0.0909424ZM16 29.6123C8.54531 29.6123 2.47869 23.5456 2.47869 16.0909C2.47869 8.63625 8.54531 2.56963 16 2.56963C23.4559 2.56963 29.5213 8.63625 29.5213 16.0909C29.5213 23.5456 23.4547 29.6123 16 29.6123Z" fill="black"/>
</g>
<defs>
<clipPath id="clip0_21_866">
<rect width="32" height="32" fill="white" transform="translate(0 0.0909424)"/>
</clipPath>
</defs>
</svg>
